# Blender v2.79 (sub 0) OBJ File: 'pipa.blend'
# www.blender.org
mtllib pipa.mtl
o Cylinder
v 0.000000 -2.962333 -0.400000
v 0.000000 2.962333 -0.400000
v 0.078036 -2.962333 -0.392314
v 0.078036 2.962333 -0.392314
v 0.153073 -2.962333 -0.369552
v 0.153073 2.962333 -0.369552
v 0.222228 -2.962333 -0.332588
v 0.222228 2.962333 -0.332588
v 0.282843 -2.962333 -0.282843
v 0.282843 2.962333 -0.282843
v 0.332588 -2.962333 -0.222228
v 0.332588 2.962333 -0.222228
v 0.369552 -2.962333 -0.153073
v 0.369552 2.962333 -0.153073
v 0.392314 -2.962333 -0.078036
v 0.392314 2.962333 -0.078036
v 0.400000 -2.962333 -0.000000
v 0.400000 2.962333 -0.000000
v 0.392314 -2.962333 0.078036
v 0.392314 2.962333 0.078036
v 0.369552 -2.962333 0.153073
v 0.369552 2.962333 0.153073
v 0.332588 -2.962333 0.222228
v 0.332588 2.962333 0.222228
v 0.282843 -2.962333 0.282843
v 0.282843 2.962333 0.282843
v 0.222228 -2.962333 0.332588
v 0.222228 2.962333 0.332588
v 0.153073 -2.962333 0.369552
v 0.153073 2.962333 0.369552
v 0.078036 -2.962333 0.392314
v 0.078036 2.962333 0.392314
v -0.000000 -2.962333 0.400000
v -0.000000 2.962333 0.400000
v -0.078036 -2.962333 0.392314
v -0.078036 2.962333 0.392314
v -0.153074 -2.962333 0.369552
v -0.153074 2.962333 0.369552
v -0.222228 -2.962333 0.332588
v -0.222228 2.962333 0.332588
v -0.282843 -2.962333 0.282843
v -0.282843 2.962333 0.282843
v -0.332588 -2.962333 0.222228
v -0.332588 2.962333 0.222228
v -0.369552 -2.962333 0.153073
v -0.369552 2.962333 0.153073
v -0.392314 -2.962333 0.078036
v -0.392314 2.962333 0.078036
v -0.400000 -2.962333 -0.000000
v -0.400000 2.962333 -0.000000
v -0.392314 -2.962333 -0.078037
v -0.392314 2.962333 -0.078037
v -0.369552 -2.962333 -0.153074
v -0.369552 2.962333 -0.153074
v -0.332588 -2.962333 -0.222229
v -0.332588 2.962333 -0.222229
v -0.282842 -2.962333 -0.282843
v -0.282842 2.962333 -0.282843
v -0.222228 -2.962333 -0.332588
v -0.222228 2.962333 -0.332588
v -0.153073 -2.962333 -0.369552
v -0.153073 2.962333 -0.369552
v -0.078036 -2.962333 -0.392314
v -0.078036 2.962333 -0.392314
v 0.000000 2.369867 -0.400000
v 0.078036 2.369867 -0.392314
v 0.153073 2.369867 -0.369552
v 0.222228 2.369867 -0.332588
v 0.282843 2.369867 -0.282843
v 0.332588 2.369867 -0.222228
v 0.369552 2.369867 -0.153073
v 0.392314 2.369867 -0.078036
v 0.400000 2.369867 -0.000000
v 0.392314 2.369867 0.078036
v 0.369552 2.369867 0.153073
v 0.332588 2.369867 0.222228
v 0.282843 2.369867 0.282843
v 0.222228 2.369867 0.332588
v 0.153073 2.369867 0.369552
v 0.078036 2.369867 0.392314
v -0.000000 2.369867 0.400000
v -0.078036 2.369867 0.392314
v -0.153074 2.369867 0.369552
v -0.222228 2.369867 0.332588
v -0.282843 2.369867 0.282843
v -0.332588 2.369867 0.222228
v -0.369552 2.369867 0.153073
v -0.392314 2.369867 0.078036
v -0.400000 2.369867 -0.000000
v -0.392314 2.369867 -0.078037
v -0.369552 2.369867 -0.153074
v -0.332588 2.369867 -0.222229
v -0.282842 2.369867 -0.282843
v -0.222228 2.369867 -0.332588
v -0.153073 2.369867 -0.369552
v -0.078036 2.369867 -0.392314
v 0.078036 1.788845 -0.392314
v 0.153073 1.788845 -0.369552
v 0.222228 1.788845 -0.332588
v 0.282843 1.788845 -0.282843
v 0.332588 1.788845 -0.222228
v 0.369552 1.788845 -0.153073
v 0.392314 1.788845 -0.078036
v 0.400000 1.788845 -0.000000
v 0.392314 1.788845 0.078036
v 0.369552 1.788845 0.153073
v 0.332588 1.788845 0.222228
v 0.282843 1.788845 0.282843
v 0.222228 1.788845 0.332588
v 0.153073 1.788845 0.369552
v 0.078036 1.788845 0.392314
v -0.000000 1.788845 0.400000
v -0.078036 1.788845 0.392314
v -0.153074 1.788845 0.369552
v -0.222228 1.788845 0.332588
v -0.282843 1.788845 0.282843
v -0.332588 1.788845 0.222228
v -0.369552 1.788845 0.153073
v -0.392314 1.788845 0.078036
v -0.400000 1.788845 -0.000000
v -0.392314 1.788845 -0.078037
v -0.369552 1.788845 -0.153074
v -0.332588 1.788845 -0.222229
v -0.282842 1.788845 -0.282843
v -0.222228 1.788845 -0.332588
v -0.153073 1.788845 -0.369552
v -0.078036 1.788845 -0.392314
v 0.000000 1.788845 -0.400000
v -0.078037 2.369867 2.189713
v -0.153074 2.369867 2.166951
v -0.000001 2.369867 2.197399
v 0.078035 2.369867 2.189713
v 0.153073 2.369867 2.166951
v 0.153073 1.788845 2.166951
v 0.078035 1.788845 2.189713
v -0.000001 1.788845 2.197399
v -0.078037 1.788845 2.189713
v -0.153074 1.788845 2.166951
v 0.078035 1.788845 2.110012
v -0.153074 2.369867 2.087250
v -0.000001 1.788845 2.117698
v 0.153073 2.369867 2.087250
v 0.153073 1.788845 2.087250
v -0.153074 1.788845 2.087250
v -0.078037 1.788845 2.110012
v -0.000001 1.788845 1.956594
v 0.153073 1.788845 1.926146
v -0.078037 1.788845 1.948909
v 0.078035 1.788845 1.948909
v -0.153074 2.369867 1.926146
v 0.153073 2.369867 1.926146
v -0.153074 1.788845 1.926146
v 0.078035 1.662734 1.948909
v 0.078035 1.662734 2.110012
v -0.000001 1.662734 2.117698
v -0.078037 1.662734 2.110012
v -0.000001 1.662734 1.956594
v -0.078037 1.662734 1.948909
v 0.000000 2.433917 -0.400000
v 0.078036 2.433917 -0.392314
v 0.153073 2.433917 -0.369552
v 0.222228 2.433917 -0.332588
v 0.282843 2.433917 -0.282843
v 0.332588 2.433917 -0.222228
v 0.369552 2.433917 -0.153073
v 0.392314 2.433917 -0.078036
v 0.400000 2.433917 -0.000000
v 0.392314 2.433917 0.078036
v 0.369552 2.433917 0.153073
v 0.332588 2.433917 0.222228
v 0.282843 2.433917 0.282843
v 0.222228 2.433917 0.332588
v 0.153073 2.433917 0.369552
v 0.078036 2.433917 0.392314
v -0.000000 2.433917 0.400000
v -0.078036 2.433917 0.392314
v -0.153074 2.433917 0.369552
v -0.222228 2.433917 0.332588
v -0.282843 2.433917 0.282843
v -0.332588 2.433917 0.222228
v -0.369552 2.433917 0.153073
v -0.392314 2.433917 0.078036
v -0.400000 2.433917 -0.000000
v -0.392314 2.433917 -0.078037
v -0.369552 2.433917 -0.153074
v -0.332588 2.433917 -0.222229
v -0.282842 2.433917 -0.282843
v -0.222228 2.433917 -0.332588
v -0.153073 2.433917 -0.369552
v -0.078036 2.433917 -0.392314
v 0.000000 2.907689 -0.400000
v 0.078036 2.907689 -0.392314
v 0.153073 2.907689 -0.369552
v 0.222228 2.907689 -0.332588
v 0.282843 2.907689 -0.282843
v 0.332588 2.907689 -0.222228
v 0.369552 2.907689 -0.153073
v 0.392314 2.907689 -0.078036
v 0.400000 2.907689 -0.000000
v 0.392314 2.907689 0.078036
v 0.369552 2.907689 0.153073
v 0.332588 2.907689 0.222228
v 0.282843 2.907689 0.282843
v 0.222228 2.907689 0.332588
v 0.153073 2.907689 0.369552
v 0.078036 2.907689 0.392314
v -0.000000 2.907689 0.400000
v -0.078036 2.907689 0.392314
v -0.153074 2.907689 0.369552
v -0.222228 2.907689 0.332588
v -0.282843 2.907689 0.282843
v -0.332588 2.907689 0.222228
v -0.369552 2.907689 0.153073
v -0.392314 2.907689 0.078036
v -0.400000 2.907689 -0.000000
v -0.392314 2.907689 -0.078037
v -0.369552 2.907689 -0.153074
v -0.332588 2.907689 -0.222229
v -0.282842 2.907689 -0.282843
v -0.222228 2.907689 -0.332588
v -0.153073 2.907689 -0.369552
v -0.078036 2.907689 -0.392314
v -0.000001 2.962333 1.647815
v 0.078036 2.962333 1.640129
v -0.078037 2.962333 1.640129
v 0.078036 2.907689 1.640129
v -0.000001 2.907689 1.647815
v -0.078037 2.907689 1.640129
vn 0.0000 0.0000 -1.0000
vn 0.0000 0.6857 -0.7279
vn 0.1420 0.6857 -0.7139
vn 0.1951 0.0000 -0.9808
vn 0.2785 0.6857 -0.6725
vn 0.3827 0.0000 -0.9239
vn 0.4044 0.6857 -0.6052
vn 0.5556 0.0000 -0.8314
vn 0.5147 0.6857 -0.5147
vn 0.7071 0.0000 -0.7071
vn 0.6052 0.6857 -0.4044
vn 0.8314 0.0000 -0.5556
vn 0.6725 0.6857 -0.2785
vn 0.9239 0.0000 -0.3827
vn 0.7139 0.6857 -0.1420
vn 0.9808 0.0000 -0.1951
vn 0.7279 0.6857 0.0000
vn 1.0000 0.0000 0.0000
vn 0.7139 0.6857 0.1420
vn 0.9808 0.0000 0.1951
vn 0.6725 0.6857 0.2785
vn 0.9239 0.0000 0.3827
vn 0.6052 0.6857 0.4044
vn 0.8314 0.0000 0.5556
vn 0.5147 0.6857 0.5147
vn 0.7071 0.0000 0.7071
vn 0.4044 0.6857 0.6052
vn 0.5556 0.0000 0.8314
vn 0.2785 0.6857 0.6725
vn 0.3827 0.0000 0.9239
vn 0.3984 0.8683 0.2954
vn 0.4814 -0.2688 0.8343
vn -0.3984 0.8683 0.2954
vn -0.4814 -0.2688 0.8343
vn -0.5653 -0.6007 0.5653
vn -0.5653 0.6007 0.5653
vn 0.5653 -0.6007 0.5653
vn 0.5653 0.6007 0.5653
vn 0.0000 0.7071 0.7071
vn 0.0000 -0.7071 0.7071
vn -0.2785 0.6857 0.6725
vn -0.3827 0.0000 0.9239
vn -0.4044 0.6857 0.6052
vn -0.5556 0.0000 0.8314
vn -0.5147 0.6857 0.5147
vn -0.7071 0.0000 0.7071
vn -0.6052 0.6857 0.4044
vn -0.8314 0.0000 0.5556
vn -0.6725 0.6857 0.2785
vn -0.9239 0.0000 0.3827
vn -0.7139 0.6857 0.1420
vn -0.9808 0.0000 0.1951
vn -0.7279 0.6857 0.0000
vn -1.0000 0.0000 0.0000
vn -0.7139 0.6857 -0.1420
vn -0.9808 0.0000 -0.1951
vn -0.6725 0.6857 -0.2785
vn -0.9239 0.0000 -0.3827
vn -0.6052 0.6857 -0.4044
vn -0.8314 0.0000 -0.5556
vn -0.5147 0.6857 -0.5147
vn -0.7071 0.0000 -0.7071
vn -0.4044 0.6857 -0.6052
vn -0.5556 0.0000 -0.8314
vn -0.2785 0.6857 -0.6725
vn -0.3827 0.0000 -0.9239
vn -0.1420 0.6857 -0.7139
vn 0.0000 1.0000 0.0000
vn -0.1951 0.0000 -0.9808
vn 0.0000 -0.6857 -0.7279
vn 0.1420 -0.6857 -0.7139
vn 0.2785 -0.6857 -0.6725
vn 0.4044 -0.6857 -0.6052
vn 0.5147 -0.6857 -0.5147
vn 0.6052 -0.6857 -0.4044
vn 0.6725 -0.6857 -0.2785
vn 0.7139 -0.6857 -0.1420
vn 0.7279 -0.6857 0.0000
vn 0.7139 -0.6857 0.1420
vn 0.6725 -0.6857 0.2785
vn 0.6052 -0.6857 0.4044
vn 0.5147 -0.6857 0.5147
vn 0.4044 -0.6857 0.6052
vn 0.2785 -0.6857 0.6725
vn 0.1420 -0.6857 0.7139
vn 0.0000 -0.6857 0.7279
vn -0.1420 -0.6857 0.7139
vn -0.2785 -0.6857 0.6725
vn -0.4044 -0.6857 0.6052
vn -0.5147 -0.6857 0.5147
vn -0.6052 -0.6857 0.4044
vn -0.6725 -0.6857 0.2785
vn -0.7139 -0.6857 0.1420
vn -0.7279 -0.6857 0.0000
vn -0.7139 -0.6857 -0.1420
vn -0.6725 -0.6857 -0.2785
vn -0.6052 -0.6857 -0.4044
vn -0.5147 -0.6857 -0.5147
vn -0.4044 -0.6857 -0.6052
vn -0.2785 -0.6857 -0.6725
vn -0.1420 -0.6857 -0.7139
vn 0.0000 -0.7298 0.6836
vn 0.3337 -0.8928 0.3025
vn 0.6182 -0.2249 0.7532
vn -0.6182 -0.2249 0.7532
vn -0.7071 -0.7071 0.0000
vn -0.5415 -0.6430 0.5415
vn -0.5415 0.6430 0.5415
vn -0.7071 0.7071 0.0000
vn -0.6182 0.2249 0.7532
vn -0.3337 -0.8928 0.3025
vn 0.7071 -0.7071 0.0000
vn 0.5415 -0.6430 0.5415
vn 0.2697 -0.9158 -0.2976
vn -0.2697 -0.9158 -0.2976
vn 0.6022 -0.5827 0.5458
vn 0.5507 -0.5723 -0.6076
vn 0.0000 -0.7298 -0.6836
vn 0.5415 0.6430 0.5415
vn 0.7071 0.7071 0.0000
vn 0.6182 0.2249 0.7532
vn -0.5507 -0.5723 -0.6076
vn -0.6022 -0.5827 0.5458
vn -0.1951 0.0000 0.9808
vn 0.0000 0.0000 1.0000
vn 0.1951 0.0000 0.9808
vn 0.1420 0.6857 0.7139
vn 0.0000 0.6857 0.7279
vn -0.1420 0.6857 0.7139
usemtl pipa
s 1
f 191//1 2//2 4//3 192//4
f 192//4 4//3 6//5 193//6
f 193//6 6//5 8//7 194//8
f 194//8 8//7 10//9 195//10
f 195//10 10//9 12//11 196//12
f 196//12 12//11 14//13 197//14
f 197//14 14//13 16//15 198//16
f 198//16 16//15 18//17 199//18
f 199//18 18//17 20//19 200//20
f 200//20 20//19 22//21 201//22
f 201//22 22//21 24//23 202//24
f 202//24 24//23 26//25 203//26
f 203//26 26//25 28//27 204//28
f 204//28 28//27 30//29 205//30
f 205//30 30//29 32//31 206//32
f 36//33 208//34 228//35 225//36
f 226//37 224//38 223//39 225//36 228//35 227//40
f 208//34 36//33 38//41 209//42
f 209//42 38//41 40//43 210//44
f 210//44 40//43 42//45 211//46
f 211//46 42//45 44//47 212//48
f 212//48 44//47 46//49 213//50
f 213//50 46//49 48//51 214//52
f 214//52 48//51 50//53 215//54
f 215//54 50//53 52//55 216//56
f 216//56 52//55 54//57 217//58
f 217//58 54//57 56//59 218//60
f 218//60 56//59 58//61 219//62
f 219//62 58//61 60//63 220//64
f 220//64 60//63 62//65 221//66
f 4//3 2//2 64//67 62//65 60//63 58//61 56//59 54//57 52//55 50//53 48//51 46//49 44//47 42//45 40//43 38//41 36//33 34//68 32//31 30//29 28//27 26//25 24//23 22//21 20//19 18//17 16//15 14//13 12//11 10//9 8//7 6//5
f 221//66 62//65 64//67 222//69
f 222//69 64//67 2//2 191//1
f 1//70 3//71 5//72 7//73 9//74 11//75 13//76 15//77 17//78 19//79 21//80 23//81 25//82 27//83 29//84 31//85 33//86 35//87 37//88 39//89 41//90 43//91 45//92 47//93 49//94 51//95 53//96 55//97 57//98 59//99 61//100 63//101
f 141//102 139//103 135//40 136//40
f 1//70 128//1 97//4 3//71
f 3//71 97//4 98//6 5//72
f 5//72 98//6 99//8 7//73
f 7//73 99//8 100//10 9//74
f 9//74 100//10 101//12 11//75
f 11//75 101//12 102//14 13//76
f 13//76 102//14 103//16 15//77
f 15//77 103//16 104//18 17//78
f 17//78 104//18 105//20 19//79
f 19//79 105//20 106//22 21//80
f 21//80 106//22 107//24 23//81
f 23//81 107//24 108//26 25//82
f 25//82 108//26 109//28 27//83
f 27//83 109//28 110//104 29//84
f 29//84 110//104 111//85 31//85
f 31//85 111//85 112//86 33//86
f 33//86 112//86 113//87 35//87
f 35//87 113//87 114//105 37//88
f 37//88 114//105 115//44 39//89
f 39//89 115//44 116//46 41//90
f 41//90 116//46 117//48 43//91
f 43//91 117//48 118//50 45//92
f 45//92 118//50 119//52 47//93
f 47//93 119//52 120//54 49//94
f 49//94 120//54 121//56 51//95
f 51//95 121//56 122//58 53//96
f 53//96 122//58 123//60 55//97
f 55//97 123//60 124//62 57//98
f 57//98 124//62 125//64 59//99
f 59//99 125//64 126//66 61//100
f 61//100 126//66 127//69 63//101
f 63//101 127//69 128//1 1//70
f 144//106 138//107 130//108 140//109 150//109 83//110 114//105 152//106
f 145//111 141//102 136//40 137//40
f 144//106 145//111 137//40 138//107
f 139//103 143//112 134//113 135//40
f 149//114 147//112 143//112 139//103
f 152//106 148//115 145//111 144//106
f 139//103 141//102 155//86 154//116
f 146//70 149//114 153//117 157//118
f 129//39 130//108 138//107 137//40 136//40 135//40 134//113 133//119 132//39 131//39
f 112//86 111//85 110//104 147//112 149//114 146//70 148//115 152//106 114//105 113//87
f 32//31 34//68 36//33 225//36 223//39 224//38
f 142//120 133//119 134//113 143//112 147//112 110//104 79//121 151//120
f 158//122 157//118 155//86 156//123
f 157//118 153//117 154//116 155//86
f 148//115 146//70 157//118 158//122
f 145//111 148//115 158//122 156//123
f 149//114 139//103 154//116 153//117
f 141//102 145//111 156//123 155//86
f 190//69 222//69 191//1 159//1
f 189//66 221//66 222//69 190//69
f 188//64 220//64 221//66 189//66
f 187//62 219//62 220//64 188//64
f 186//60 218//60 219//62 187//62
f 185//58 217//58 218//60 186//60
f 184//56 216//56 217//58 185//58
f 183//54 215//54 216//56 184//56
f 182//52 214//52 215//54 183//54
f 181//50 213//50 214//52 182//52
f 180//48 212//48 213//50 181//50
f 179//46 211//46 212//48 180//48
f 178//44 210//44 211//46 179//46
f 177//42 209//42 210//44 178//44
f 176//124 208//34 209//42 177//42
f 175//125 207//86 208//34 176//124
f 174//126 206//32 207//86 175//125
f 173//30 205//30 206//32 174//126
f 172//28 204//28 205//30 173//30
f 171//26 203//26 204//28 172//28
f 170//24 202//24 203//26 171//26
f 169//22 201//22 202//24 170//24
f 168//20 200//20 201//22 169//22
f 167//18 199//18 200//20 168//20
f 166//16 198//16 199//18 167//18
f 165//14 197//14 198//16 166//16
f 164//12 196//12 197//14 165//14
f 163//10 195//10 196//12 164//12
f 162//8 194//8 195//10 163//10
f 161//6 193//6 194//8 162//8
f 160//4 192//4 193//6 161//6
f 159//1 191//1 192//4 160//4
f 207//86 206//32 226//37 227//40 228//35 208//34
f 206//32 32//31 224//38 226//37
f 129//39 131//39 132//39 133//119 142//120 151//120 79//121 80//127 81//128 82//129 83//110 150//109 140//109 130//108
usemtl Material.001
f 127//69 96//69 65//1 128//1
f 126//66 95//66 96//69 127//69
f 125//64 94//64 95//66 126//66
f 124//62 93//62 94//64 125//64
f 123//60 92//60 93//62 124//62
f 122//58 91//58 92//60 123//60
f 121//56 90//56 91//58 122//58
f 120//54 89//54 90//56 121//56
f 119//52 88//52 89//54 120//54
f 118//50 87//50 88//52 119//52
f 117//48 86//48 87//50 118//50
f 116//46 85//46 86//48 117//48
f 115//44 84//44 85//46 116//46
f 114//105 83//110 84//44 115//44
f 109//28 78//28 79//121 110//104
f 108//26 77//26 78//28 109//28
f 107//24 76//24 77//26 108//26
f 106//22 75//22 76//24 107//24
f 105//20 74//20 75//22 106//22
f 104//18 73//18 74//20 105//20
f 103//16 72//16 73//18 104//18
f 102//14 71//14 72//16 103//16
f 101//12 70//12 71//14 102//14
f 100//10 69//10 70//12 101//12
f 99//8 68//8 69//10 100//10
f 98//6 67//6 68//8 99//8
f 97//4 66//4 67//6 98//6
f 128//1 65//1 66//4 97//4
f 96//69 190//69 159//1 65//1
f 95//66 189//66 190//69 96//69
f 94//64 188//64 189//66 95//66
f 93//62 187//62 188//64 94//64
f 92//60 186//60 187//62 93//62
f 91//58 185//58 186//60 92//60
f 90//56 184//56 185//58 91//58
f 89//54 183//54 184//56 90//56
f 88//52 182//52 183//54 89//54
f 87//50 181//50 182//52 88//52
f 86//48 180//48 181//50 87//50
f 85//46 179//46 180//48 86//48
f 84//44 178//44 179//46 85//46
f 83//110 177//42 178//44 84//44
f 82//129 176//124 177//42 83//110
f 81//128 175//125 176//124 82//129
f 80//127 174//126 175//125 81//128
f 79//121 173//30 174//126 80//127
f 78//28 172//28 173//30 79//121
f 77//26 171//26 172//28 78//28
f 76//24 170//24 171//26 77//26
f 75//22 169//22 170//24 76//24
f 74//20 168//20 169//22 75//22
f 73//18 167//18 168//20 74//20
f 72//16 166//16 167//18 73//18
f 71//14 165//14 166//16 72//16
f 70//12 164//12 165//14 71//14
f 69//10 163//10 164//12 70//12
f 68//8 162//8 163//10 69//10
f 67//6 161//6 162//8 68//8
f 66//4 160//4 161//6 67//6
f 65//1 159//1 160//4 66//4
